<svg id="SvgjsSvg1001" width="288" height="288" xmlns="http://www.w3.org/2000/svg" version="1.1" xmlns:xlink="http://www.w3.org/1999/xlink" xmlns:svgjs="http://svgjs.com/svgjs"><defs id="SvgjsDefs1002"></defs><g id="SvgjsG1008"><svg xmlns="http://www.w3.org/2000/svg" xmlns:xlink="http://www.w3.org/1999/xlink" data-name="Layer 1" viewBox="0 0 512 512" width="288" height="288"><defs><linearGradient id="b" x1="452.364" x2="452.364" y1="643.019" y2="-28.564" gradientUnits="userSpaceOnUse"><stop offset="0" stop-color="#ff10f0" class="stopColor9c40f2 svgShape"></stop><stop offset=".999" stop-color="#ff7a7a" class="stopColore9a5f0 svgShape"></stop></linearGradient><linearGradient id="a" x1="321.455" x2="321.455" y1="583.378" y2="302.4" gradientUnits="userSpaceOnUse"><stop offset=".001" stop-color="#8d93f8" class="stopColord48cf8 svgShape"></stop><stop offset=".999" stop-color="#db2777" class="stopColorf7bfff svgShape"></stop></linearGradient><linearGradient id="d" x1="190.545" x2="190.545" y1="627.114" y2="376.199" xlink:href="#a"></linearGradient><linearGradient id="c" x1="59.636" x2="59.636" y1="596.631" y2="389.77" gradientUnits="userSpaceOnUse"><stop offset="0" stop-color="#babdf7" class="stopColoredbaf7 svgShape"></stop><stop offset=".999" stop-color="#e6e7f5" class="stopColoreee6f5 svgShape"></stop></linearGradient><linearGradient id="e" x1="452.364" x2="452.364" y1="665.496" y2="-17.398" xlink:href="#b"></linearGradient><linearGradient id="f" x1="321.455" x2="321.455" y1="558.306" y2="175.658" xlink:href="#a"></linearGradient><linearGradient id="g" x1="190.545" x2="190.545" y1="517.474" y2="283.807" xlink:href="#a"></linearGradient><linearGradient id="h" x1="59.636" x2="59.636" y1="617.577" y2="364.081" xlink:href="#c"></linearGradient><linearGradient id="i" x1="256" x2="256" y1="529.783" y2="46.7" gradientUnits="userSpaceOnUse"><stop offset=".001" stop-color="#171cf2" class="stopColor6b17f2 svgShape"></stop><stop offset="1" stop-color="#6366f1" class="stopColor8c47e6 svgShape"></stop></linearGradient><linearGradient id="j" x1="452.364" x2="452.364" y1="557.69" y2="-20.998" xlink:href="#b"></linearGradient><linearGradient id="k" x1="321.454" x2="321.454" y1="785.776" y2="185.467" xlink:href="#a"></linearGradient><linearGradient id="l" x1="190.545" x2="190.545" y1="869.592" y2="261.864" xlink:href="#a"></linearGradient><linearGradient id="m" x1="59.636" x2="59.636" y1="809.969" y2="193.078" xlink:href="#c"></linearGradient></defs><rect width="87.273" height="298.868" x="408.727" y="197.132" fill="url(#b)" rx="15.789" ry="15.789"></rect><rect width="87.273" height="226.415" x="277.818" y="269.585" fill="url(#a)" rx="15.789" ry="15.789"></rect><rect width="87.273" height="163.019" x="146.909" y="332.981" fill="url(#d)" rx="15.789" ry="15.789"></rect><rect width="87.273" height="126.792" x="16" y="369.208" fill="url(#c)" rx="15.789" ry="15.789"></rect><path fill="url(#e)" d="M477.66928,372.21347h-50.61129l-18.33072-74.83167v-84.46052c0-8.72014,7.06907-15.7892,15.7892-15.7892h55.69432c8.72014,0,15.7892,7.06907,15.7892,15.7892v48.95181l-18.33072,110.34039Z"></path><path fill="url(#f)" d="M343.74971,372.21347h-44.59032l-21.3412-21.56898v-65.27038c0-8.72014,7.06907-15.7892,15.7892-15.7892h55.69432c8.72014,0,15.7892,7.06907,15.7892,15.7892v29.76212l-21.3412,57.07724Z"></path><path fill="url(#g)" d="M221.1141,416.86724h-61.13729l-13.06772-12.9595v-55.13741c0-8.72014,7.06907-15.7892,15.7892-15.7892h55.69432c8.72014,0,15.7892,7.06907,15.7892,15.7892v19.62858l-13.06772,48.46833Z"></path><path fill="url(#h)" d="M16,457.17044v-72.17369c0-8.72014,7.06907-15.7892,15.7892-15.7892h55.69432c8.72014,0,15.7892,7.06907,15.7892,15.7892v36.66537l-8.46314,32.36471-70.43824,10.50011-8.37135-7.3565Z"></path><path fill="url(#i)" d="M449.71948,112.12178l-9.28575-91.02819c-.40172-3.93807-4.6167-6.25941-8.15964-4.49382l-81.89491,40.81165c-3.85239,1.91981-3.96449,7.37577-.1942,9.45219l31.6345,17.42215c-27.7753,41.08348-73.94272,81.33947-133.32444,115.74419-58.44277,33.86183-124.31822,58.63451-175.39932,66.27955-6.71202,1.00455-11.45414,7.08481-10.78074,13.83809l.70372,7.05736c.72056,7.22625,7.33079,12.40226,14.51301,11.32819,55.12721-8.24401,125.44422-34.52929,187.2732-70.35265,36.98736-21.42942,69.39385-45.14735,96.31975-70.49526,19.90776-18.74039,36.3837-38.0339,49.30281-57.64368l31.40749,17.29706c3.77027,2.0764,8.32133-.93483,7.88453-5.21684Z"></path><path fill="url(#j)" d="M424.51648,496h55.69434c8.72009,0,15.78918-7.06934,15.78918-15.78906v-218.33789l-87.27271,35.50879v182.8291c0,8.71973,7.06909,15.78906,15.78918,15.78906Z"></path><path fill="url(#k)" d="M293.60742,496h55.69434c8.72009,0,15.78906-7.06934,15.78906-15.78906v-165.07471l-87.27271,35.5083v129.56641c0,8.71973,7.06909,15.78906,15.78931,15.78906Z"></path><path fill="url(#l)" d="M162.69824,496h55.69434c8.72021,0,15.78931-7.06934,15.78931-15.78906v-111.81201l-87.27283,35.50879v76.30322c0,8.71973,7.06909,15.78906,15.78918,15.78906Z"></path><path fill="url(#m)" d="M103.27271,480.21094v-58.54883l-87.27271,35.5083v23.04053c0,8.71973,7.06909,15.78906,15.78918,15.78906h55.69434c8.72009,0,15.78918-7.06934,15.78918-15.78906Z"></path></svg></g></svg>